<svg xmlns="http://www.w3.org/2000/svg" width="193.222" height="45.677" viewBox="0 0 193.222 45.677">
  <g id="Grupo_5133" data-name="Grupo 5133" transform="translate(-278 -131.161)">
    <g id="tc-branco" transform="translate(299 154)">
      <path id="Caminho_144" data-name="Caminho 144" d="M30.8,0H11.2A11.2,11.2,0,0,0,0,11.2V30.8A11.2,11.2,0,0,0,11.2,42H30.8A11.2,11.2,0,0,0,42,30.8V11.2A11.2,11.2,0,0,0,30.8,0ZM21.261,12.219A3.076,3.076,0,0,1,18.2,14.97H15.65a.292.292,0,0,0-.292.292V27.289a3.292,3.292,0,0,1-3.292,3.292h0a.589.589,0,0,1-.589-.589V14.97H7.192A.589.589,0,0,1,6.6,14.38v-2.2a.589.589,0,0,1,.589-.589H20.677A.572.572,0,0,1,21.261,12.219ZM35.387,27.543a2.942,2.942,0,0,1-2.942,2.942H30.7a12.727,12.727,0,0,1-5.161-.771,4.585,4.585,0,0,1-2.41-3.038,20.208,20.208,0,0,1-.546-5.626,20.237,20.237,0,0,1,.551-5.64,4.593,4.593,0,0,1,2.5-3.033,11.96,11.96,0,0,1,5.084-.781c.709,0-1.318.014,4.006.014h.355a.3.3,0,0,1,.3.3h0a2.937,2.937,0,0,1-2.937,2.937h-1.15a9.36,9.36,0,0,0-3.426.364,1.945,1.945,0,0,0-1.093,1.485,17,17,0,0,0-.417,4.365,16.111,16.111,0,0,0,.417,4.274,2.006,2.006,0,0,0,1.093,1.519,8.981,8.981,0,0,0,3.426.4h3.8a.3.3,0,0,1,.3.3Z" transform="translate(-21 -21)" fill="#fff"/>
    </g>
    <g id="Grupo_5132" data-name="Grupo 5132" transform="translate(709.118 -49.885)">
      <path id="Caminho_13755" data-name="Caminho 13755" d="M-327.368,203.884A13.431,13.431,0,0,1-340.8,217.315a13.431,13.431,0,0,1-13.431-13.431A13.431,13.431,0,0,1-340.8,190.453a13.431,13.431,0,0,1,13.431,13.431m6.887,9.4V194.48a4.029,4.029,0,0,0-2.015-3.49l-16.289-9.4a4.027,4.027,0,0,0-4.029,0l-16.289,9.4a4.03,4.03,0,0,0-2.014,3.49v18.809a4.029,4.029,0,0,0,2.014,3.489l16.289,9.4a4.03,4.03,0,0,0,4.029,0l16.289-9.4a4.029,4.029,0,0,0,2.015-3.489" fill="#fff"/>
      <path id="Caminho_13756" data-name="Caminho 13756" d="M-321.356,212.781a3.385,3.385,0,0,1-1.3,2.8,2.818,2.818,0,0,1-1.346.589v.1a3.418,3.418,0,0,1,2.778,2.008,4.632,4.632,0,0,1,.325,1.7c0,2.963-2.2,4.522-5.318,4.522h-8.37V208.379h8.347c2.807,0,4.883,1.664,4.883,4.4m-5.653-1.2h-3.608v3.464h3.464a1.8,1.8,0,0,0,1.948-1.8,1.7,1.7,0,0,0-1.8-1.66m.169,6.183h-3.776V221.3h3.7a1.756,1.756,0,0,0,1.973-1.8,1.744,1.744,0,0,0-1.9-1.731" transform="translate(-12.185 -12.553)" fill="#fff"/>
      <path id="Caminho_13757" data-name="Caminho 13757" d="M-264.717,209.105h-2.518v-5.619l-2.959,5.619h-1.2l-2.974-5.651v5.651h-2.519V198.561h2.55l3.541,6.689,3.542-6.689h2.533Z" transform="translate(-38.687 -8.044)" fill="#fff"/>
      <path id="Caminho_13758" data-name="Caminho 13758" d="M-243.84,209.105h-8.216V198.561h8.216v2.234h-5.618v1.983h5.114v2.109h-5.114v1.983h5.618Z" transform="translate(-50.089 -8.044)" fill="#fff"/>
      <path id="Caminho_13759" data-name="Caminho 13759" d="M-228.175,205.359l3.3,3.747H-228l-3.179-3.62h-.755v3.62h-2.6V198.561h5.334c2.17,0,3.793,1.32,3.793,3.447a3.323,3.323,0,0,1-2.769,3.351m-1.306-4.58h-2.455v2.536h2.455c.848,0,1.527-.464,1.527-1.276s-.693-1.26-1.527-1.26" transform="translate(-58.137 -8.044)" fill="#fff"/>
      <path id="Caminho_13760" data-name="Caminho 13760" d="M-187.949,209.106l-.739-1.92h-4.438l-.74,1.92h-2.785l4.407-10.545h2.659l4.407,10.545Zm-2.958-7.618-1.337,3.463h2.691Z" transform="translate(-75.535 -8.044)" fill="#fff"/>
      <path id="Caminho_13761" data-name="Caminho 13761" d="M-169.406,198.56c2.688,0,4.565,1.238,5.366,3.148a5.44,5.44,0,0,1,.409,2.125,5.017,5.017,0,0,1-1.59,3.808,6.071,6.071,0,0,1-4.186,1.464h-4.171V198.56Zm-.095,2.251h-1.48v6.044h1.48a2.976,2.976,0,0,0,3.257-3.022,2.976,2.976,0,0,0-3.257-3.022" transform="translate(-86.132 -8.044)" fill="#fff"/>
      <path id="Caminho_13762" data-name="Caminho 13762" d="M-144.417,199.737a5.471,5.471,0,0,1,1.636,3.911,5.409,5.409,0,0,1-1.636,3.888,5.65,5.65,0,0,1-3.982,1.605,5.655,5.655,0,0,1-3.982-1.605,5.4,5.4,0,0,1-1.636-3.888,5.48,5.48,0,0,1,1.636-3.911,5.61,5.61,0,0,1,3.982-1.614,5.613,5.613,0,0,1,3.982,1.614m-1.189,5.139a3.32,3.32,0,0,0,.229-1.229,3.043,3.043,0,0,0-1.77-2.88,3.159,3.159,0,0,0-1.251-.267,2.92,2.92,0,0,0-2.762,1.833,3.55,3.55,0,0,0-.26,1.314,2.994,2.994,0,0,0,1.833,2.88,3.023,3.023,0,0,0,1.189.236,2.9,2.9,0,0,0,2.793-1.888" transform="translate(-95.115 -7.843)" fill="#fff"/>
      <path id="Caminho_13763" data-name="Caminho 13763" d="M-265.55,226.344a2.9,2.9,0,0,1-1.112,2.4,2.412,2.412,0,0,1-1.154.505v.082a2.929,2.929,0,0,1,2.38,1.72,3.964,3.964,0,0,1,.278,1.452c0,2.54-1.887,3.874-4.555,3.874h-7.171v-13.8h7.15c2.4,0,4.183,1.425,4.183,3.77m-4.842-1.031h-3.091v2.967h2.967a1.546,1.546,0,0,0,1.67-1.545,1.454,1.454,0,0,0-1.546-1.422m.144,5.3h-3.235v3.03h3.174a1.5,1.5,0,0,0,1.689-1.546,1.494,1.494,0,0,0-1.628-1.484" transform="translate(-38.687 -19.073)" fill="#fff"/>
      <rect id="Ret창ngulo_136" data-name="Ret창ngulo 136" width="3.4" height="13.805" transform="translate(-302.954 203.501)" fill="#fff"/>
      <path id="Caminho_13764" data-name="Caminho 13764" d="M-237.037,225.54v10.839h-3.379V225.54h-4.472v-2.966h12.322v2.966Z" transform="translate(-53.381 -19.072)" fill="#fff"/>
      <path id="Caminho_13765" data-name="Caminho 13765" d="M-183.825,224.113a7.168,7.168,0,0,1,2.143,5.121,7.075,7.075,0,0,1-2.143,5.089,7.4,7.4,0,0,1-5.213,2.1,7.4,7.4,0,0,1-5.213-2.1,7.07,7.07,0,0,1-2.143-5.089,7.174,7.174,0,0,1,2.143-5.121A7.345,7.345,0,0,1-189.038,222a7.351,7.351,0,0,1,5.213,2.112m-1.556,6.728a4.365,4.365,0,0,0,.3-1.607,3.98,3.98,0,0,0-2.318-3.771,4.114,4.114,0,0,0-1.638-.35,3.827,3.827,0,0,0-3.616,2.4,4.625,4.625,0,0,0-.34,1.721,3.92,3.92,0,0,0,2.4,3.771,3.969,3.969,0,0,0,1.556.309,3.8,3.8,0,0,0,3.657-2.473" transform="translate(-75.653 -18.809)" fill="#fff"/>
      <rect id="Ret창ngulo_137" data-name="Ret창ngulo 137" width="3.4" height="13.805" transform="translate(-256.485 203.501)" fill="#fff"/>
      <path id="Caminho_13766" data-name="Caminho 13766" d="M-145.761,236.635h-2.8l-6.985-7.995v7.995h-3.4V222.829h2.823l6.985,8.241v-8.241h3.38Z" transform="translate(-92.851 -19.19)" fill="#fff"/>
      <path id="Caminho_13767" data-name="Caminho 13767" d="M-210.106,231.918l-1.2-.694a3.434,3.434,0,0,1-3.3,2.11,3.829,3.829,0,0,1-1.526-.309,4.042,4.042,0,0,1-2.41-3.811,4.21,4.21,0,0,1,.31-1.608,3.813,3.813,0,0,1,3.627-2.493,3.486,3.486,0,0,1,2.935,1.4,4.508,4.508,0,0,1,.35.694l1.214-.7,1.786-1.031a6.2,6.2,0,0,0-1.775-2.034A7.346,7.346,0,0,0-214.6,222a7.4,7.4,0,0,0-5.194,2.1,7.129,7.129,0,0,0-2.142,5.109,7.177,7.177,0,0,0,2.142,5.132,7.388,7.388,0,0,0,5.194,2.081,8.183,8.183,0,0,0,2.472-.371,6.35,6.35,0,0,0,3.81-3.106Z" transform="translate(-63.92 -18.809)" fill="#fff"/>
      <path id="Caminho_13768" data-name="Caminho 13768" d="M-207.042,205.7l-.918-.53a2.623,2.623,0,0,1-2.519,1.611,2.931,2.931,0,0,1-1.166-.236,3.088,3.088,0,0,1-1.841-2.911,3.22,3.22,0,0,1,.236-1.229,2.913,2.913,0,0,1,2.77-1.9,2.661,2.661,0,0,1,2.242,1.07,3.38,3.38,0,0,1,.268.53l.927-.536,1.364-.787a4.731,4.731,0,0,0-1.356-1.554,5.612,5.612,0,0,0-3.446-1.1,5.654,5.654,0,0,0-3.967,1.605,5.447,5.447,0,0,0-1.636,3.9,5.484,5.484,0,0,0,1.636,3.92,5.647,5.647,0,0,0,3.967,1.589,6.235,6.235,0,0,0,1.888-.284,4.85,4.85,0,0,0,2.91-2.372Z" transform="translate(-66.611 -7.843)" fill="#fff"/>
    </g>
  </g>
</svg>
